# xmcd
#
# Track frame offsets:
#	150
#	12109
#	27702
#	43584
#	60940
#	77329
#	90380
#	105117
#	119429
#	130591
#	148794
#	162704
#	174080
#
# Disc length: 2527 seconds
# Revision: 0
# Processed by: cddbd v1.5.2PL0 Copyright (c) Steve Scherf et al.
# Submitted via: dBpowerAMP V12.0
#
DISCID=9509dd0d
DTITLE=Mark Johnson and Emory Lester - Acoustic Rising
DYEAR=2006
DGENRE=Country
TTITLE0=Cold Creek March
TTITLE1=Cold Frosty Morning
TTITLE2=Girl from the North Country
TTITLE3=Katie Weeks
TTITLE4=Ashfields and Brine
TTITLE5=Big Sciota
TTITLE6=Denbrae
TTITLE7=John Wilkes Booth
TTITLE8=Down to the River to Pray
TTITLE9=Wagon Line
TTITLE10=Timberline
TTITLE11=Monroe's Hornpipe
TTITLE12=Eileen O'Neill
EXTD=
EXTT0=
EXTT1=
EXTT2=
EXTT3=
EXTT4=
EXTT5=
EXTT6=
EXTT7=
EXTT8=
EXTT9=
EXTT10=
EXTT11=
EXTT12=
PLAYORDER=
